<?xml version="1.0" encoding="utf-8"?>
<!-- Generator: Adobe Illustrator 24.1.0, SVG Export Plug-In . SVG Version: 6.00 Build 0)  -->
<svg version="1.1" id="main" xmlns="http://www.w3.org/2000/svg" xmlns:xlink="http://www.w3.org/1999/xlink" x="0px" y="0px"
	 viewBox="0 0 295.5 49.8" style="enable-background:new 0 0 295.5 49.8;" xml:space="preserve">
<style type="text/css">
	.st0{fill:#777777;}
</style>
<path class="st0" d="M40.7,0v3.2H22.3v46h-3.9v-46H0V0H40.7z"/>
<path class="st0" d="M98.4,16.8l-14,33h-1.7l-9.9-26.3l-10,26.3h-1.6l-13.8-33h3.4l11,26.4L72,16.8h1.9l9.8,26.4L95,16.8L98.4,16.8z
	"/>
<path class="st0" d="M121.3,0v5.9h-3.5V0H121.3z M121.3,16.8v32.3h-3.5V16.8H121.3z"/>
<path class="st0" d="M148.6,16.8v5.6h0.1c2.7-4.2,6.3-6.3,10.7-6.3c3.3-0.2,6.5,1.1,8.8,3.5c2.2,2.3,3.3,5.6,3.3,9.7V49H168V30.7
	c0-7.5-2.9-11.2-8.8-11.2c-4.3,0-7.8,2.3-10.6,6.9v22.7h-3.4V16.8H148.6z"/>
<path class="st0" d="M198.1,0v49.1h-3.4V0H198.1z M221,16.8l-17.7,15.3l20.4,17H219l-20.4-17l17.9-15.4L221,16.8z"/>
<path class="st0" d="M244,0v49.1h-3.5V0H244z"/>
<path class="st0" d="M295.5,31.7H270c-0.1,0.6-0.1,1.1-0.1,1.7c-0.1,3.5,1.3,6.8,3.9,9.2c2.4,2.4,5.7,3.8,9.1,3.8
	c4.1,0,8.1-1.6,12-4.8v3.9c-3.5,2.8-7.9,4.3-12.5,4.3c-4.4,0.1-8.6-1.6-11.6-4.8c-3.1-3.3-4.7-7.8-4.6-12.3
	c-0.1-4.3,1.4-8.5,4.2-11.8c5.4-5.9,14.5-6.2,20.4-0.9c0.1,0.1,0.3,0.3,0.4,0.4C294.1,23.1,295.5,26.9,295.5,31.7z M270.5,29h21
	c-1.2-6.3-4.6-9.5-10.2-9.5c-2.5-0.1-5,0.8-6.9,2.5C272.3,23.8,270.9,26.3,270.5,29L270.5,29z"/>
</svg>
